<svg version="1" xmlns="http://www.w3.org/2000/svg" width="1000" height="1000" viewBox="0 0 750.000000 750.000000"><path d="M333.2 1.6c-106 11.5-201.1 67.3-263 154.2-67 94.1-87.2 214.8-54.7 326.7 22.5 77 69.9 145.8 134 194.2 42.1 31.7 90.8 54.3 141.6 65.7 27.7 6.2 34.5 6.9 75.3 7.3 39.3.5 46.9.1 69.6-3.8 54.9-9.4 110.9-33.4 156.1-67 69.4-51.6 119-125.4 140.2-208.4 9-35.4 11.2-53.6 11.2-95 0-36.1-.9-46.3-6.6-75C714.2 186 638.9 88 534.5 37 494 17.3 450.1 5 406 1c-15.8-1.4-57.8-1.1-72.8.6zm72.3 32.5c44.7 3.8 92.3 18.7 132.8 41.3 97 54.3 161.8 152.4 174.3 264.1 2.2 20 2.2 56.1 0 74.9-7.4 61.4-28 115.5-61.9 163.1-21.9 30.7-54 62.4-84.9 83.7-40.6 28.1-87.2 47-136.2 55.3-40.1 6.7-84.8 5.9-125.1-2.5-43.7-9-86.7-27.6-124.2-53.6-23.6-16.4-52.8-43.7-70.7-65.9C65.9 540.1 40.1 475.1 33.9 404c-1.5-16.8-.7-52.9 1.5-70 10.3-79.3 45.4-149.8 102.2-205 32.5-31.5 67.1-54.4 107.3-70.9 50.9-20.9 103.9-28.8 160.6-24z"/><path d="M362 37.7c-83 2.4-164.7 38-224.5 97.8-57.2 57.2-92.1 132.9-98.6 214-1.4 18-.6 53.9 1.5 70.4 13.2 99.6 66.7 186 149.1 240.6 43.3 28.8 88.5 45.7 141 53 15.8 2.2 53.2 3 70.6 1.6 109.2-9.2 205.8-70.3 261.8-165.5 38.8-66 54.3-146 43.1-222.4-9-61.3-33.9-117.9-73.2-166.4-11.7-14.5-35.2-37.9-49.3-49.2C520 60.9 443.3 35.3 362 37.7zm-93 212.8c27 6.2 45.3 15.8 62.6 33 18.1 18.1 29.3 39.7 33.9 66 2.4 13.2 2.4 39.2.2 52.7-7.6 44.7-37.7 81.2-78.2 94.7-18.6 6.1-18 6.1-91.5 6.1h-67.1l.3-6.8.3-6.7 9.5-.6c15.5-1 21.8-4.9 23.9-14.9 1.5-7.1 1.5-188.9 0-196-2.1-10-8.4-13.9-23.9-14.9l-9.5-.6-.3-5.9c-.2-3.2-.1-6.5.2-7.3.5-1.3 9.5-1.4 66.4-1 57.5.4 66.6.6 73.2 2.2zm250-1.5c8.6.5 19.6 1.8 24.6 2.9 36.9 8 57.4 29.1 57.4 59.1 0 14.1-3.7 23.4-13.9 34.3-10 10.8-29.1 19.9-44.9 21.4l-6.7.7 11.9 1.8c13.5 2 28.8 6.9 37.3 11.9 12.5 7.4 22.8 20.5 26.9 34.4 2.9 9.6 2.5 24.9-.9 35-3.7 11.1-9 19.7-17.2 28s-16 13.7-26.5 18.1c-14.8 6.4-14.9 6.4-99.5 6.4h-76.6l.3-6.8.3-6.7 9.3-.7c11.7-.8 17.5-3.4 20.6-9.3 2.1-4 2.1-4.5 2.1-103.5s0-99.5-2.1-103.5c-3.2-6-9.1-8.7-20.9-9.3l-9.5-.5V248h56.3c30.9 0 63.2.5 71.7 1z"/><path d="M215.8 264.3c-6.1 1.8-9.4 4-11.5 8-1.7 3-1.8 9.4-1.8 103.7 0 99 0 100.6 2 104 1.3 2.2 3.9 4.4 7 6 4.9 2.4 5.5 2.5 27 2.5 25.6 0 32.6-1.2 45.8-7.7 11.1-5.6 21.7-16.1 27.4-27.3 9.5-18.5 11.8-33.3 11.8-76 0-20.6-.4-33.8-1.3-39.5-5.5-35.7-16.6-55.6-37.1-66.4-12.3-6.4-19.7-7.8-43.6-8.2-15.2-.3-22.3 0-25.7.9zM486 263.1c-15.8 1-22.2 4.7-23.4 13.5-.3 2.6-.6 22.8-.6 45V362h25.9c29.3 0 37.1-1 48.2-6.1 7.2-3.3 14.2-9.7 17.4-15.8 4.1-8 5.7-26.3 3.4-40.1-1.2-7.8-4.7-15.9-9.4-21.5-4-5-14.2-10.6-23.5-13-7.8-2-26.3-3.2-38-2.4zM462.2 424.6c.3 48.8.3 48.9 2.6 53.6 1.9 3.9 3.3 5.2 8 7.5l5.7 2.8h23c19.3 0 24.1-.3 30-1.9 19.5-5.2 30.8-14.6 35.9-29.9 3.8-11.4 3.9-34.3.2-46.7-3.6-12-10.4-21.7-18.7-26.7-10-6-13.8-6.5-52.2-7l-34.8-.6.3 48.9z"/></svg>